name GIL08_slow4EmgEnv.mot
datacolumns 51
datarows 11
range 0.53425932 0.54351854
endheader
                time	   rect_fem_l_emgRec	   rect_fem_l_emgEnv	   rect_fem_l_emgAve	   rect_fem_l_emgSDp	   rect_fem_l_emgSDm	   rect_fem_r_emgRec	   rect_fem_r_emgEnv	   rect_fem_r_emgAve	   rect_fem_r_emgSDp	   rect_fem_r_emgSDm	   med_hams_l_emgRec	   med_hams_l_emgEnv	   med_hams_l_emgAve	   med_hams_l_emgSDp	   med_hams_l_emgSDm	   med_hams_r_emgRec	   med_hams_r_emgEnv	   med_hams_r_emgAve	   med_hams_r_emgSDp	   med_hams_r_emgSDm	   lat_hams_l_emgRec	   lat_hams_l_emgEnv	   lat_hams_l_emgAve	   lat_hams_l_emgSDp	   lat_hams_l_emgSDm	   lat_hams_r_emgRec	   lat_hams_r_emgEnv	   lat_hams_r_emgAve	   lat_hams_r_emgSDp	   lat_hams_r_emgSDm	    tib_ant_l_emgRec	    tib_ant_l_emgEnv	    tib_ant_l_emgAve	    tib_ant_l_emgSDp	    tib_ant_l_emgSDm	    tib_ant_r_emgRec	    tib_ant_r_emgEnv	    tib_ant_r_emgAve	    tib_ant_r_emgSDp	    tib_ant_r_emgSDm	    gas_sol_l_emgRec	    gas_sol_l_emgEnv	    gas_sol_l_emgAve	    gas_sol_l_emgSDp	    gas_sol_l_emgSDm	    gas_sol_r_emgRec	    gas_sol_r_emgEnv	    gas_sol_r_emgAve	    gas_sol_r_emgSDp	    gas_sol_r_emgSDm	
          0.53425932	          0.07587348	          0.38530046	          0.16812792	          0.36178765	         -0.02553180	          0.38107681	          0.36942843	          0.41790658	          0.51426513	          0.32154803	          0.03463506	          0.06134702	          0.05928008	          0.07372940	          0.04483077	          0.04809321	          0.09153922	          0.18630771	          0.26305144	          0.10956398	          0.02398459	          0.02836766	          0.06649652	          0.09555696	          0.03743608	          0.23056171	          0.20146029	          0.23085320	          0.32350849	          0.13819791	          0.04778943	          0.34295210	          0.26357758	          0.34643362	          0.18072154	          0.04537519	          0.30821395	          0.17193341	          0.24488290	          0.09898393	          0.57124321	          0.37476811	          0.55048794	          0.77669546	          0.32428041	          0.06223999	          0.04720504	          0.08230036	          0.14655692	          0.01804381	
          0.53518522	          0.06212375	          0.38206474	          0.16841018	          0.36437972	         -0.02755935	          0.29239220	          0.36917652	          0.41814473	          0.51453394	          0.32175552	          0.04468063	          0.06267417	          0.05966914	          0.07406733	          0.04527095	          0.03438927	          0.09397966	          0.18734969	          0.26472700	          0.10997239	          0.00826722	          0.02751044	          0.06644116	          0.09493468	          0.03794763	          0.15969467	          0.20102561	          0.23126172	          0.32386684	          0.13865659	          0.04710766	          0.34359737	          0.26462051	          0.34789421	          0.18134681	          0.06746089	          0.30531021	          0.17180093	          0.24508187	          0.09851998	          0.09908658	          0.37628626	          0.55082953	          0.77549444	          0.32616462	          0.04554940	          0.04775086	          0.08243907	          0.14679217	          0.01808598	
          0.53611112	          0.03311146	          0.37898137	          0.16869742	          0.36696732	         -0.02957249	          0.16763991	          0.36895144	          0.41837454	          0.51479336	          0.32195572	          0.04992462	          0.06403119	          0.06005293	          0.07440069	          0.04570518	          0.01624692	          0.09639208	          0.18839140	          0.26640584	          0.11037696	          0.00709927	          0.02665187	          0.06637952	          0.09431534	          0.03844369	          0.08983657	          0.20051784	          0.23166807	          0.32422232	          0.13911382	          0.04693687	          0.34412849	          0.26565641	          0.34934664	          0.18196619	          0.21484145	          0.30230874	          0.17169924	          0.24532130	          0.09807718	          0.59995146	          0.37779399	          0.55114722	          0.77426735	          0.32802710	          0.02661449	          0.04832050	          0.08257965	          0.14703079	          0.01812851	
          0.53703707	          0.08870349	          0.37606667	          0.16898926	          0.36954883	         -0.03157032	          0.00729954	          0.36875474	          0.41859609	          0.51504350	          0.32214867	          0.04516914	          0.06541634	          0.06043116	          0.07472918	          0.04613313	          0.01615745	          0.09877162	          0.18943280	          0.26808795	          0.11077765	          0.00218102	          0.02579417	          0.06631144	          0.09369904	          0.03892384	          0.00337169	          0.19993742	          0.23207241	          0.32457509	          0.13956974	          0.07892646	          0.34454455	          0.26668504	          0.35079044	          0.18257964	          0.22663978	          0.29921835	          0.17162827	          0.24560103	          0.09765550	          0.47989389	          0.37929568	          0.55144131	          0.77301514	          0.32986748	          0.01307620	          0.04891315	          0.08272210	          0.14727280	          0.01817139	
          0.53796303	          0.14287988	          0.37333627	          0.16928551	          0.37212248	         -0.03355147	          0.09606894	          0.36858785	          0.41880938	          0.51528438	          0.32233439	          0.03504139	          0.06682772	          0.06080344	          0.07505247	          0.04655441	          0.01138759	          0.10111341	          0.19047382	          0.26977320	          0.11117445	          0.00098981	          0.02493954	          0.06623676	          0.09308591	          0.03938762	          0.05230023	          0.19928496	          0.23247463	          0.32492508	          0.14002417	          0.03125296	          0.34484493	          0.26770598	          0.35222495	          0.18318700	          0.18085750	          0.29604793	          0.17158794	          0.24592090	          0.09725498	          0.29959815	          0.38079607	          0.55171114	          0.77173795	          0.33168434	          0.00702054	          0.04952795	          0.08286638	          0.14751820	          0.01821455	
          0.53888893	          0.05507726	          0.37080498	          0.16958579	          0.37468623	         -0.03551464	          0.18545458	          0.36845205	          0.41901436	          0.51551592	          0.32251281	          0.00622290	          0.06826329	          0.06116946	          0.07537025	          0.04696868	          0.02072024	          0.10341262	          0.19151431	          0.27146136	          0.11156727	          0.00141915	          0.02409018	          0.06615538	          0.09247619	          0.03983457	          0.08825065	          0.19856122	          0.23287483	          0.32527248	          0.14047717	          0.05018479	          0.34502935	          0.26871878	          0.35364947	          0.18378808	          0.16093527	          0.29280640	          0.17157814	          0.24628069	          0.09687559	          0.18735428	          0.38230020	          0.55195713	          0.77043699	          0.33347727	          0.03457687	          0.05016401	          0.08301252	          0.14776696	          0.01825808	
          0.53981483	          0.02226406	          0.36848679	          0.16988987	          0.37723857	         -0.03745884	          0.28552950	          0.36834843	          0.41921109	          0.51573826	          0.32268392	          0.02227974	          0.06972087	          0.06152894	          0.07568225	          0.04737563	          0.05874562	          0.10566446	          0.19255437	          0.27315259	          0.11195615	          0.01272487	          0.02324831	          0.06606714	          0.09186997	          0.04026431	          0.15284283	          0.19776708	          0.23327297	          0.32561731	          0.14092863	          0.07607970	          0.34509783	          0.26972327	          0.35506360	          0.18438293	          0.09719707	          0.28950269	          0.17159879	          0.24668028	          0.09651730	          0.10413753	          0.38381332	          0.55217880	          0.76911236	          0.33524524	          0.04647368	          0.05082042	          0.08316053	          0.14801913	          0.01830192	
          0.54074079	          0.00560159	          0.36639482	          0.17019749	          0.37977807	         -0.03938310	          0.36153162	          0.36827790	          0.41939956	          0.51595137	          0.32284775	          0.01946226	          0.07119813	          0.06188158	          0.07598821	          0.04777496	          0.05078703	          0.10786417	          0.19359389	          0.27484679	          0.11234099	          0.00855909	          0.02241613	          0.06597190	          0.09126734	          0.04067645	          0.18439121	          0.19690359	          0.23366915	          0.32595968	          0.14137861	          0.20495562	          0.34505077	          0.27071905	          0.35646676	          0.18497135	         -0.00067737	          0.28614569	          0.17164981	          0.24711955	          0.09618007	          0.02339330	          0.38534089	          0.55237633	          0.76776476	          0.33698790	          0.05543483	          0.05149624	          0.08331040	          0.14827471	          0.01834609	
          0.54166675	          0.02576946	          0.36454126	          0.17050838	          0.38230301	         -0.04128624	          0.38509141	          0.36824118	          0.41957986	          0.51615534	          0.32300439	          0.02539842	          0.07269259	          0.06222708	          0.07628783	          0.04816633	          0.01384087	          0.11000709	          0.19463281	          0.27654384	          0.11272179	          0.00984678	          0.02159582	          0.06586955	          0.09066853	          0.04107058	          0.17865579	          0.19597195	          0.23406324	          0.32629953	          0.14182695	          0.26690868	          0.34488892	          0.27170581	          0.35785837	          0.18555325	          0.10042357	          0.28274422	          0.17173107	          0.24759823	          0.09586391	          0.02165514	          0.38688848	          0.55254924	          0.76639457	          0.33870392	          0.06344789	          0.05219053	          0.08346213	          0.14853369	          0.01839058	
          0.54259264	          0.11895294	          0.36293736	          0.17082234	          0.38481162	         -0.04316695	          0.32332512	          0.36823879	          0.41975203	          0.51635025	          0.32315382	          0.05011457	          0.07420166	          0.06256513	          0.07658084	          0.04854941	          0.00358452	          0.11208862	          0.19567108	          0.27824365	          0.11309851	          0.01246355	          0.02078955	          0.06575998	          0.09007368	          0.04144628	          0.16221240	          0.19497346	          0.23445547	          0.32663714	          0.14227379	          0.25052695	          0.34461343	          0.27268317	          0.35923783	          0.18612851	          0.17472891	          0.27930700	          0.17184243	          0.24811610	          0.09556875	          0.03663496	          0.38846174	          0.55269772	          0.76500265	          0.34039278	          0.06241454	          0.05290229	          0.08361573	          0.14879604	          0.01843541	
          0.54351854	          0.14763479	          0.36159337	          0.17113903	          0.38730249	         -0.04502442	          0.26800443	          0.36827104	          0.41991603	          0.51653608	          0.32329599	          0.04664240	          0.07572260	          0.06289545	          0.07686698	          0.04892393	          0.00689087	          0.11410428	          0.19670869	          0.27994621	          0.11347118	          0.01544060	          0.01999949	          0.06564309	          0.08948295	          0.04180324	          0.11720401	          0.19390959	          0.23484568	          0.32697245	          0.14271892	          0.14009764	          0.34422585	          0.27365080	          0.36060459	          0.18669700	          0.21524312	          0.27584259	          0.17198382	          0.24867304	          0.09529460	          0.01494942	          0.39006629	          0.55282158	          0.76358938	          0.34205377	          0.06329836	          0.05363053	          0.08377117	          0.14906181	          0.01848053	
